<svg width="206" height="69" viewBox="0 0 206 69" fill="none" xmlns="http://www.w3.org/2000/svg">
<rect x="0.75" y="0.75" width="204.5" height="67.5" rx="11.25" fill="white" stroke="black" stroke-width="1.5"/>
<path d="M72.3274 19.5649C72.3274 20.7856 72.0222 21.8537 71.2593 22.6167C70.3437 23.5323 69.2756 23.99 67.9022 23.99C66.5289 23.99 65.4608 23.5323 64.5452 22.6167C63.6296 21.7011 63.1719 20.633 63.1719 19.2597C63.1719 17.8863 63.6296 16.8182 64.5452 15.9026C65.4608 14.9871 66.5289 14.5293 67.9022 14.5293C68.5126 14.5293 69.123 14.6819 69.7334 14.9871C70.3437 15.2923 70.8015 15.5974 71.1067 16.0552L70.3437 16.8182C69.7334 16.0552 68.9704 15.75 67.9022 15.75C66.9867 15.75 66.0711 16.0552 65.4608 16.8182C64.6978 17.4286 64.3926 18.3441 64.3926 19.4123C64.3926 20.4804 64.6978 21.396 65.4608 22.0063C66.2237 22.6167 66.9867 23.0745 67.9022 23.0745C68.9704 23.0745 69.7334 22.7693 70.4963 22.0063C70.9541 21.5486 71.2593 20.9382 71.2593 20.1752H67.9022V18.9545H72.3274V19.5649ZM79.3467 15.75H75.2267V18.6493H79.0415V19.7174H75.2267V22.6167H79.3467V23.8374H74.0059V14.6819H79.3467V15.75ZM84.3822 23.8374H83.1615V15.75H80.5674V14.6819H86.9763V15.75H84.3822V23.8374ZM91.4015 23.8374V14.6819H92.6222V23.8374H91.4015ZM97.8104 23.8374H96.5896V15.75H93.9956V14.6819H100.252V15.75H97.6578V23.8374H97.8104ZM112.307 22.6167C111.391 23.5323 110.323 23.99 108.95 23.99C107.576 23.99 106.508 23.5323 105.593 22.6167C104.677 21.7011 104.219 20.633 104.219 19.2597C104.219 17.8863 104.677 16.8182 105.593 15.9026C106.508 14.9871 107.576 14.5293 108.95 14.5293C110.323 14.5293 111.391 14.9871 112.307 15.9026C113.222 16.8182 113.68 17.8863 113.68 19.2597C113.68 20.633 113.222 21.7011 112.307 22.6167ZM106.508 21.8537C107.119 22.4641 108.034 22.9219 108.95 22.9219C109.865 22.9219 110.781 22.6167 111.391 21.8537C112.002 21.2434 112.459 20.3278 112.459 19.2597C112.459 18.1915 112.154 17.276 111.391 16.6656C110.781 16.0552 109.865 15.5974 108.95 15.5974C108.034 15.5974 107.119 15.9026 106.508 16.6656C105.898 17.276 105.44 18.1915 105.44 19.2597C105.44 20.3278 105.745 21.2434 106.508 21.8537ZM115.359 23.8374V14.6819H116.732L121.157 21.8537V14.6819H122.378V23.8374H121.157L116.427 16.3604V23.8374H115.359Z" fill="black"/>
<path d="M103.915 37.2656C100.253 37.2656 97.3534 40.0123 97.3534 43.8271C97.3534 47.4893 100.253 50.3886 103.915 50.3886C107.577 50.3886 110.476 47.6419 110.476 43.8271C110.476 39.8597 107.577 37.2656 103.915 37.2656ZM103.915 47.6419C101.931 47.6419 100.253 45.9634 100.253 43.6745C100.253 41.3856 101.931 39.7071 103.915 39.7071C105.899 39.7071 107.577 41.233 107.577 43.6745C107.577 45.9634 105.899 47.6419 103.915 47.6419ZM89.7237 37.2656C86.0615 37.2656 83.1623 40.0123 83.1623 43.8271C83.1623 47.4893 86.0615 50.3886 89.7237 50.3886C93.386 50.3886 96.2852 47.6419 96.2852 43.8271C96.2852 39.8597 93.386 37.2656 89.7237 37.2656ZM89.7237 47.6419C87.74 47.6419 86.0615 45.9634 86.0615 43.6745C86.0615 41.3856 87.74 39.7071 89.7237 39.7071C91.7074 39.7071 93.386 41.233 93.386 43.6745C93.386 45.9634 91.7074 47.6419 89.7237 47.6419ZM72.786 39.2493V41.996H79.3474C79.1948 43.5219 78.5845 44.7426 77.8215 45.5056C76.906 46.4212 75.38 47.4893 72.786 47.4893C68.666 47.4893 65.6141 44.2849 65.6141 40.1649C65.6141 36.0449 68.8186 32.8404 72.786 32.8404C74.9223 32.8404 76.6008 33.756 77.8215 34.8241L79.8052 32.8404C78.1267 31.3145 75.9904 30.0938 72.9385 30.0938C67.4452 30.0938 62.7148 34.6715 62.7148 40.1649C62.7148 45.6582 67.4452 50.236 72.9385 50.236C75.9904 50.236 78.1267 49.3204 79.9578 47.3367C81.7889 45.5056 82.3993 42.9115 82.3993 40.9278C82.3993 40.3175 82.3993 39.7071 82.2467 39.2493H72.786ZM142.063 41.3856C141.453 39.8597 139.927 37.2656 136.57 37.2656C133.213 37.2656 130.466 39.8597 130.466 43.8271C130.466 47.4893 133.213 50.3886 136.875 50.3886C139.774 50.3886 141.605 48.5575 142.216 47.4893L140.079 45.9634C139.316 47.0315 138.401 47.7945 136.875 47.7945C135.349 47.7945 134.433 47.1841 133.67 45.8108L142.368 42.1486L142.063 41.3856ZM133.213 43.5219C133.213 41.0804 135.196 39.7071 136.57 39.7071C137.638 39.7071 138.706 40.3175 139.011 41.0804L133.213 43.5219ZM126.041 49.7782H128.94V30.7041H126.041V49.7782ZM121.463 38.6389C120.7 37.876 119.479 37.113 117.953 37.113C114.749 37.113 111.697 40.0123 111.697 43.6745C111.697 47.3367 114.596 50.0834 117.953 50.0834C119.479 50.0834 120.7 49.3204 121.31 48.5575H121.463V49.473C121.463 51.9145 120.09 53.2878 117.953 53.2878C116.275 53.2878 115.054 52.0671 114.749 50.9989L112.307 52.0671C113.07 53.7456 114.902 55.8819 118.106 55.8819C121.463 55.8819 124.21 53.8982 124.21 49.1678V37.5708H121.463V38.6389ZM118.106 47.6419C116.122 47.6419 114.444 45.9634 114.444 43.6745C114.444 41.3856 116.122 39.7071 118.106 39.7071C120.09 39.7071 121.616 41.3856 121.616 43.6745C121.616 45.9634 120.09 47.6419 118.106 47.6419ZM155.339 30.7041H148.472V49.7782H151.371V42.6063H155.339C158.543 42.6063 161.595 40.3175 161.595 36.6552C161.595 32.993 158.543 30.7041 155.339 30.7041ZM155.491 39.8597H151.371V33.2982H155.491C157.627 33.2982 158.848 35.1293 158.848 36.5026C158.696 38.1812 157.475 39.8597 155.491 39.8597ZM173.039 37.113C170.903 37.113 168.767 38.0286 168.004 40.0123L170.598 41.0804C171.208 40.0123 172.124 39.7071 173.192 39.7071C174.718 39.7071 176.091 40.6226 176.244 42.1486V42.3012C175.786 41.996 174.565 41.5382 173.344 41.5382C170.598 41.5382 167.851 43.0641 167.851 45.8108C167.851 48.4049 170.14 50.0834 172.582 50.0834C174.565 50.0834 175.481 49.1678 176.244 48.2523H176.396V49.7782H179.143V42.4538C178.838 39.0967 176.244 37.113 173.039 37.113ZM172.734 47.6419C171.819 47.6419 170.445 47.1841 170.445 45.9634C170.445 44.4375 172.124 43.9797 173.497 43.9797C174.718 43.9797 175.328 44.2849 176.091 44.59C175.786 46.4212 174.26 47.6419 172.734 47.6419ZM188.756 37.5708L185.552 45.8108H185.399L182.042 37.5708H178.99L184.026 49.1678L181.127 55.5767H184.026L191.808 37.5708H188.756ZM163.121 49.7782H166.02V30.7041H163.121V49.7782Z" fill="black"/>
<rect x="9" y="9" width="47" height="51" fill="white"/>
<path d="M41 28.7143L50.4208 34.0976C51.1054 34.4888 51.0891 35.4815 50.392 35.8499L25.5 49.0071M41 28.7143L36.9627 34M41 28.7143L25.5 19.8571M25.5 49.0071L18.4673 52.7244C17.8013 53.0764 17 52.5936 17 51.8403V16.7232C17 15.9554 17.8295 15.474 18.4961 15.8549L25.5 19.8571M25.5 49.0071L36.9627 34M36.9627 34L25.5 19.8571" stroke="black" stroke-width="2.5"/>
<path d="M26.273 48.6112L18.4398 52.4473C17.7754 52.7727 17 52.289 17 51.5492V17.1564C17 16.4039 17.7998 15.921 18.4657 16.2714L26.29 20.3895C26.4281 20.4621 26.5472 20.5661 26.638 20.6931L36.0848 33.9188C36.3332 34.2665 36.3332 34.7335 36.0848 35.0812L26.6469 48.2943C26.5505 48.4293 26.422 48.5382 26.273 48.6112Z" fill="black" stroke="black"/>
</svg>
