<svg width="206" height="69" viewBox="0 0 206 69" fill="none" xmlns="http://www.w3.org/2000/svg">
<rect x="0.75" y="0.75" width="204.5" height="67.5" rx="11.25" fill="white" stroke="black" stroke-width="1.5"/>
<path d="M44.9475 35.0832C44.9025 30.0746 49.0496 27.638 49.2393 27.5245C46.8906 24.101 43.2501 23.6333 41.9708 23.596C38.9133 23.2743 35.9475 25.4251 34.3899 25.4251C32.8013 25.4251 30.4028 23.6271 27.8179 23.6799C24.4914 23.7312 21.3795 25.6566 19.6727 28.6465C16.1504 34.7429 18.7774 43.7017 22.152 48.6295C23.8401 51.0444 25.8127 53.7375 28.3945 53.6427C30.9205 53.5401 31.864 52.0343 34.9122 52.0343C37.9325 52.0343 38.8185 53.6427 41.4517 53.5821C44.1626 53.5401 45.8693 51.1578 47.4983 48.7227C49.4491 45.9581 50.2326 43.2324 50.2636 43.0926C50.2015 43.0708 45.0004 41.0848 44.9475 35.0832ZM39.9734 20.3543C41.332 18.6558 42.2615 16.345 42.0035 14C40.0371 14.087 37.578 15.3598 36.162 17.021C34.9091 18.4849 33.7899 20.8842 34.079 23.1407C36.2879 23.3054 38.5558 22.0264 39.9734 20.3543Z" fill="black"/>
<path d="M81.5342 53.2954H78.0041L76.0704 47.2208H69.3491L67.5071 53.2954H64.0703L70.731 32.6147H74.844L81.5342 53.2954ZM75.4875 44.6723L73.7388 39.2721C73.5538 38.7204 73.2056 37.4213 72.6958 35.3762H72.6336C72.4284 36.2558 72.1004 37.5549 71.6512 39.2721L69.932 44.6723H75.4875ZM98.6297 45.656C98.6297 48.1921 97.9411 50.1968 96.5623 51.6684C95.3281 52.9784 93.7939 53.6327 91.9643 53.6327C89.9887 53.6327 88.5679 52.9287 87.7052 51.5177V59.3421H84.3912V43.2845C84.3912 41.6917 84.3492 40.0584 84.2684 38.3832H87.183L87.3679 40.7468H87.4301C88.5353 38.966 90.2125 38.0755 92.4633 38.0755C94.2229 38.0755 95.6918 38.7702 96.867 40.161C98.0406 41.5549 98.6297 43.3855 98.6297 45.656ZM95.2535 45.7772C95.2535 44.3257 94.9271 43.1291 94.2711 42.1859C93.5545 41.2053 92.5923 40.7142 91.3861 40.7142C90.5685 40.7142 89.8255 40.9877 89.1617 41.527C88.4964 42.0709 88.0612 42.781 87.8576 43.6606C87.7667 43.9895 87.715 44.3281 87.7037 44.6692V47.1571C87.7037 48.2403 88.0363 49.1556 88.7016 49.9046C89.3669 50.6505 90.2312 51.025 91.2944 51.025C92.5426 51.025 93.5141 50.5417 94.2089 49.5829C94.9053 48.621 95.2535 47.3529 95.2535 45.7772ZM115.786 45.656C115.786 48.1921 115.097 50.1968 113.718 51.6684C112.483 52.9784 110.95 53.6327 109.119 53.6327C107.143 53.6327 105.722 52.9287 104.86 51.5177V59.3421H101.546V43.2845C101.546 41.6917 101.504 40.0584 101.423 38.3832H104.338L104.522 40.7468H104.585C105.688 38.966 107.366 38.0755 109.618 38.0755C111.376 38.0755 112.845 38.7702 114.023 40.161C115.195 41.5549 115.786 43.3855 115.786 45.656ZM112.408 45.7772C112.408 44.3257 112.08 43.1291 111.424 42.1859C110.708 41.2053 109.748 40.7142 108.542 40.7142C107.725 40.7142 106.982 40.9877 106.315 41.527C105.649 42.0709 105.216 42.781 105.012 43.6606C104.911 44.0709 104.857 44.405 104.857 44.6692V47.1571C104.857 48.2403 105.191 49.1556 105.853 49.9046C106.518 50.649 107.383 51.025 108.449 51.025C109.699 51.025 110.67 50.5417 111.363 49.5829C112.06 48.621 112.408 47.3529 112.408 45.7772ZM134.967 47.4943C134.967 49.255 134.352 50.6863 133.128 51.7912C131.782 52.9971 129.903 53.6016 127.494 53.6016C125.268 53.6016 123.483 53.1727 122.137 52.3133L122.903 49.5518C124.357 50.4128 125.953 50.8417 127.691 50.8417C128.941 50.8417 129.912 50.5588 130.606 49.9978C131.3 49.4353 131.652 48.6832 131.652 47.7445C131.652 46.9038 131.361 46.1999 130.791 45.6264C130.217 45.0546 129.269 44.5215 127.937 44.032C124.315 42.6816 122.502 40.7064 122.502 38.1081C122.502 36.4112 123.143 35.0219 124.421 33.9356C125.698 32.8509 127.393 32.3086 129.5 32.3086C131.383 32.3086 132.951 32.6365 134.196 33.2907L133.365 35.9916C132.193 35.3576 130.87 35.0405 129.39 35.0405C128.221 35.0405 127.304 35.328 126.648 35.8999C126.096 36.4112 125.816 37.0343 125.816 37.774C125.816 38.5899 126.135 39.2674 126.769 39.7989C127.32 40.2884 128.324 40.8214 129.776 41.3933C131.557 42.1113 132.866 42.9473 133.704 43.9077C134.548 44.8681 134.967 46.0662 134.967 47.4943ZM145.952 40.8696H142.3V48.1097C142.3 49.9512 142.943 50.8696 144.233 50.8696C144.825 50.8696 145.317 50.8199 145.705 50.7158L145.797 53.2317C145.144 53.4757 144.284 53.5985 143.22 53.5985C141.911 53.5985 140.888 53.1991 140.15 52.4003C139.415 51.6016 139.045 50.2636 139.045 48.3801V40.8634H136.868V38.377H139.045V35.6466L142.3 34.6645V38.377H145.952V40.8696ZM162.401 45.7166C162.401 48.0087 161.745 49.8906 160.436 51.3623C159.067 52.8774 157.245 53.6327 154.974 53.6327C152.783 53.6327 151.04 52.9069 149.741 51.4571C148.441 50.0041 147.791 48.1734 147.791 45.9652C147.791 43.6544 148.463 41.7616 149.801 40.29C151.143 38.8168 152.949 38.0802 155.22 38.0802C157.408 38.0802 159.166 38.8074 160.497 40.2589C161.769 41.6668 162.401 43.485 162.401 45.7166ZM158.966 45.7927C158.966 44.4267 158.671 43.255 158.078 42.2744C157.384 41.0903 156.389 40.4982 155.1 40.4982C153.773 40.4982 152.755 41.0903 152.061 42.2744C151.467 43.255 151.172 44.4469 151.172 45.8549C151.172 47.2224 151.467 48.3972 152.061 49.3747C152.778 50.5588 153.777 51.1509 155.072 51.1509C156.339 51.1509 157.332 50.5464 158.05 49.3452C158.66 48.3413 158.966 47.1618 158.966 45.7927ZM173.178 41.297C172.833 41.2348 172.484 41.2041 172.133 41.2053C170.968 41.2053 170.066 41.6435 169.432 42.5262C168.882 43.3032 168.605 44.2853 168.605 45.471V53.2954H165.291V43.0794C165.294 41.514 165.262 39.9487 165.195 38.3848H168.081L168.202 41.2379H168.294C168.645 40.2573 169.196 39.4663 169.951 38.8743C170.643 38.3569 171.483 38.0767 172.346 38.0755C172.653 38.0755 172.929 38.0973 173.175 38.1361L173.178 41.297ZM187.999 45.1338C188.008 45.6375 187.967 46.1407 187.878 46.6365H177.936C177.973 48.1097 178.455 49.2379 179.379 50.0149C180.216 50.708 181.3 51.0561 182.63 51.0561C184.102 51.0561 185.445 50.823 186.653 50.3522L187.172 52.6505C185.761 53.2659 184.095 53.5721 182.172 53.5721C179.859 53.5721 178.043 52.8914 176.722 51.5332C175.404 50.1735 174.743 48.3459 174.743 46.0569C174.743 43.8098 175.357 41.9372 176.587 40.4438C177.874 38.8494 179.613 38.0522 181.802 38.0522C183.952 38.0522 185.579 38.8494 186.684 40.4438C187.559 41.7072 187.999 43.2737 187.999 45.1338ZM184.839 44.2744C184.863 43.2908 184.645 42.4438 184.196 41.7274C183.622 40.8043 182.739 40.3444 181.556 40.3444C180.473 40.3444 179.59 40.7935 178.918 41.6948C178.367 42.4112 178.039 43.2721 177.938 44.2713L184.839 44.2744Z" fill="black"/>
<path d="M68.3927 25.3032C67.4709 25.3032 66.6735 25.2581 66.0098 25.182V15.1835C66.9381 15.0401 67.8762 14.9695 68.8155 14.9721C72.616 14.9721 74.3663 16.8416 74.3663 19.889C74.3663 23.4042 72.2989 25.3032 68.3927 25.3032ZM68.9492 16.2542C68.4362 16.2542 67.9994 16.2853 67.6372 16.3599V23.9605C67.8331 23.9916 68.2093 24.0056 68.7378 24.0056C71.2279 24.0056 72.6456 22.5883 72.6456 19.9341C72.6456 17.5673 71.3632 16.2542 68.9492 16.2542ZM79.8208 25.3793C77.6788 25.3793 76.2907 23.7803 76.2907 21.6093C76.2907 19.3467 77.7083 17.7336 79.942 17.7336C82.0529 17.7336 83.4721 19.2565 83.4721 21.4896C83.4721 23.7803 82.0094 25.3793 79.8208 25.3793ZM79.8829 18.924C78.7063 18.924 77.9524 20.0242 77.9524 21.5627C77.9524 23.0716 78.7218 24.1719 79.8674 24.1719C81.013 24.1719 81.7824 22.9955 81.7824 21.5316C81.7824 20.0398 81.0286 18.924 79.8829 18.924ZM95.6867 17.8844L93.3939 25.213H91.9001L90.9504 22.0304C90.7143 21.252 90.5176 20.462 90.3613 19.6637H90.3302C90.2105 20.4625 89.9836 21.2628 89.7426 22.0304L88.7322 25.213H87.2229L85.0654 17.8844H86.7395L87.5695 21.3684C87.7654 22.1983 87.9302 22.9815 88.067 23.7212H88.098C88.2177 23.1043 88.4136 22.3335 88.7012 21.384L89.7426 17.8859H91.0701L92.0665 21.3094C92.3074 22.1392 92.5033 22.9535 92.6556 23.7228H92.6991C92.8048 22.9691 92.9711 22.1687 93.1965 21.3094L94.0872 17.8859L95.6867 17.8844ZM104.127 25.213H102.498V21.0048C102.498 19.7088 102.001 19.0592 101.02 19.0592C100.055 19.0592 99.3909 19.889 99.3909 20.8541V25.213H97.7619V19.9792C97.7619 19.3311 97.7463 18.6365 97.7012 17.8828H99.1344L99.2106 19.0141H99.2557C99.694 18.2309 100.583 17.7336 101.58 17.7336C103.118 17.7336 104.129 18.91 104.129 20.8245L104.127 25.213ZM108.619 25.213H106.989V14.5215H108.619V25.213ZM114.559 25.3793C112.418 25.3793 111.029 23.7803 111.029 21.6093C111.029 19.3467 112.446 17.7336 114.679 17.7336C116.791 17.7336 118.209 19.2565 118.209 21.4896C118.21 23.7803 116.746 25.3793 114.559 25.3793ZM114.62 18.924C113.443 18.924 112.689 20.0242 112.689 21.5627C112.689 23.0716 113.46 24.1719 114.602 24.1719C115.75 24.1719 116.517 22.9955 116.517 21.5316C116.519 20.0398 115.767 18.924 114.62 18.924ZM124.632 25.213L124.513 24.3692H124.47C123.972 25.0483 123.247 25.3793 122.326 25.3793C121.013 25.3793 120.08 24.4594 120.08 23.2224C120.08 21.4135 121.649 20.478 124.364 20.478V20.3428C124.364 19.3778 123.853 18.8945 122.842 18.8945C122.12 18.8945 121.485 19.0763 120.927 19.4384L120.596 18.3676C121.274 17.945 122.12 17.7336 123.113 17.7336C125.028 17.7336 125.995 18.7437 125.995 20.7655V23.4648C125.995 24.2045 126.027 24.7779 126.1 25.2146L124.632 25.213ZM124.408 21.5627C122.598 21.5627 121.691 22.0009 121.691 23.0405C121.691 23.8098 122.158 24.1859 122.808 24.1859C123.637 24.1859 124.408 23.5534 124.408 22.694V21.5627ZM133.905 25.213L133.829 24.0367H133.784C133.316 24.9256 132.53 25.3793 131.431 25.3793C129.663 25.3793 128.354 23.8253 128.354 21.6388C128.354 19.3467 129.711 17.7321 131.564 17.7321C132.545 17.7321 133.24 18.0631 133.632 18.7282H133.664V14.5215H135.295V23.2379C135.295 23.9465 135.312 24.6101 135.355 25.213H133.905ZM133.664 20.9007C133.664 19.875 132.985 19.0001 131.948 19.0001C130.74 19.0001 130.002 20.0708 130.002 21.5782C130.002 23.0561 130.768 24.0677 131.916 24.0677C132.94 24.0677 133.664 23.1773 133.664 22.1221V20.9007ZM145.633 25.3793C143.493 25.3793 142.105 23.7803 142.105 21.6093C142.105 19.3467 143.522 17.7336 145.755 17.7336C147.867 17.7336 149.285 19.2565 149.285 21.4896C149.286 23.7803 147.823 25.3793 145.633 25.3793ZM145.694 18.924C144.519 18.924 143.765 20.0242 143.765 21.5627C143.765 23.0716 144.534 24.1719 145.678 24.1719C146.826 24.1719 147.593 22.9955 147.593 21.5316C147.597 20.0398 146.843 18.924 145.694 18.924ZM158.045 25.213H156.415V21.0048C156.415 19.7088 155.917 19.0592 154.936 19.0592C153.971 19.0592 153.309 19.889 153.309 20.8541V25.213H151.678V19.9792C151.678 19.3311 151.663 18.6365 151.618 17.8828H153.051L153.127 19.0141H153.172C153.609 18.2309 154.5 17.7321 155.495 17.7321C157.033 17.7321 158.045 18.9084 158.045 20.823V25.213ZM169.006 19.1058H167.213V22.6645C167.213 23.5705 167.527 24.0227 168.161 24.0227C168.449 24.0227 168.69 23.9916 168.884 23.9465L168.929 25.1835C168.614 25.3047 168.191 25.3653 167.666 25.3653C166.382 25.3653 165.614 24.6567 165.614 22.8012V19.1058H164.544V17.8844H165.614V16.5417L167.213 16.0584V17.8828H169.006V19.1058ZM177.629 25.213H176.002V21.0359C176.002 19.7243 175.506 19.0607 174.524 19.0607C173.68 19.0607 172.893 19.6342 172.893 20.795V25.213H171.266V14.5215H172.893V18.924H172.926C173.439 18.1252 174.182 17.7321 175.13 17.7321C176.681 17.7321 177.629 18.938 177.629 20.8541V25.213ZM186.465 21.9403H181.576C181.607 23.328 182.526 24.1113 183.886 24.1113C184.609 24.1113 185.274 23.99 185.862 23.7647L186.115 24.896C185.422 25.1975 184.606 25.3482 183.656 25.3482C181.363 25.3482 180.006 23.8999 180.006 21.6544C180.006 19.4073 181.396 17.7181 183.472 17.7181C185.346 17.7181 186.521 19.1058 186.521 21.2022C186.531 21.4496 186.512 21.6973 186.465 21.9403ZM184.971 20.7795C184.971 19.6482 184.4 18.8494 183.359 18.8494C182.423 18.8494 181.683 19.6637 181.578 20.7795H184.971Z" fill="black"/>
</svg>
