<svg width="101" height="20" viewBox="0 0 101 20" fill="none" xmlns="http://www.w3.org/2000/svg">
<path d="M3.25976 1.03V16H0.159764V1.03H3.25976ZM8.30508 5.63V16H5.20508V5.63H8.30508ZM8.62508 2.79C8.62508 3.03667 8.57508 3.27 8.47508 3.49C8.37508 3.70333 8.23841 3.89333 8.06508 4.06C7.89174 4.22 7.68841 4.35 7.45508 4.45C7.22841 4.54333 6.98508 4.59 6.72508 4.59C6.47174 4.59 6.23508 4.54333 6.01508 4.45C5.79508 4.35 5.59841 4.22 5.42508 4.06C5.25841 3.89333 5.12508 3.70333 5.02508 3.49C4.93174 3.27 4.88508 3.03667 4.88508 2.79C4.88508 2.53667 4.93174 2.3 5.02508 2.08C5.12508 1.86 5.25841 1.66667 5.42508 1.5C5.59841 1.33333 5.79508 1.20333 6.01508 1.11C6.23508 1.01667 6.47174 0.97 6.72508 0.97C6.98508 0.97 7.22841 1.01667 7.45508 1.11C7.68841 1.20333 7.89174 1.33333 8.06508 1.5C8.23841 1.66667 8.37508 1.86 8.47508 2.08C8.57508 2.3 8.62508 2.53667 8.62508 2.79ZM13.1071 6.75C13.3071 6.56333 13.5138 6.39 13.7271 6.23C13.9404 6.07 14.1671 5.93667 14.4071 5.83C14.6538 5.71667 14.9171 5.63 15.1971 5.57C15.4838 5.50333 15.7938 5.47 16.1271 5.47C16.6938 5.47 17.1938 5.57 17.6271 5.77C18.0671 5.96333 18.4371 6.23667 18.7371 6.59C19.0371 6.93667 19.2638 7.35333 19.4171 7.84C19.5704 8.32 19.6471 8.84333 19.6471 9.41V16H16.5471V9.41C16.5471 8.90333 16.4304 8.51 16.1971 8.23C15.9638 7.94333 15.6204 7.8 15.1671 7.8C14.8271 7.8 14.5071 7.87333 14.2071 8.02C13.9138 8.16 13.6271 8.35333 13.3471 8.6V16H10.2471V5.63H12.1671C12.5538 5.63 12.8071 5.80333 12.9271 6.15L13.1071 6.75ZM24.5334 1.03V9.42H24.9934C25.1867 9.42 25.3334 9.39333 25.4334 9.34C25.5334 9.28 25.6334 9.18333 25.7334 9.05L27.6934 6.13C27.8134 5.96333 27.95 5.84 28.1034 5.76C28.2567 5.67333 28.4534 5.63 28.6934 5.63H31.5334L28.8534 9.32C28.6 9.65333 28.3 9.92667 27.9534 10.14C28.1067 10.2533 28.2467 10.3867 28.3734 10.54C28.5 10.6867 28.62 10.8533 28.7334 11.04L31.6534 16H28.8534C28.62 16 28.42 15.9633 28.2534 15.89C28.0867 15.81 27.9467 15.6733 27.8334 15.48L25.8734 11.81C25.78 11.6433 25.6834 11.5367 25.5834 11.49C25.4834 11.4367 25.3334 11.41 25.1334 11.41H24.5334V16H21.4334V1.03H24.5334ZM38.9752 7.9C38.8952 8.02667 38.8086 8.11667 38.7152 8.17C38.6286 8.22333 38.5152 8.25 38.3752 8.25C38.2286 8.25 38.0819 8.22 37.9352 8.16C37.7886 8.09333 37.6286 8.02333 37.4552 7.95C37.2886 7.87667 37.0986 7.81 36.8852 7.75C36.6719 7.68333 36.4286 7.65 36.1552 7.65C35.7619 7.65 35.4586 7.72667 35.2452 7.88C35.0386 8.02667 34.9352 8.23333 34.9352 8.5C34.9352 8.69333 35.0019 8.85333 35.1352 8.98C35.2752 9.10667 35.4586 9.22 35.6852 9.32C35.9119 9.41333 36.1686 9.50333 36.4552 9.59C36.7419 9.67667 37.0352 9.77333 37.3352 9.88C37.6352 9.98667 37.9286 10.1133 38.2152 10.26C38.5019 10.4 38.7586 10.5767 38.9852 10.79C39.2119 10.9967 39.3919 11.25 39.5252 11.55C39.6652 11.85 39.7352 12.21 39.7352 12.63C39.7352 13.1433 39.6419 13.6167 39.4552 14.05C39.2686 14.4833 38.9886 14.8567 38.6152 15.17C38.2486 15.4833 37.7919 15.7267 37.2452 15.9C36.7052 16.0733 36.0819 16.16 35.3752 16.16C35.0219 16.16 34.6686 16.1267 34.3152 16.06C33.9619 15.9933 33.6186 15.9033 33.2852 15.79C32.9586 15.6767 32.6552 15.5433 32.3752 15.39C32.0952 15.23 31.8552 15.06 31.6552 14.88L32.3752 13.74C32.4552 13.6067 32.5552 13.5033 32.6752 13.43C32.8019 13.35 32.9619 13.31 33.1552 13.31C33.3352 13.31 33.4952 13.35 33.6352 13.43C33.7819 13.51 33.9386 13.5967 34.1052 13.69C34.2719 13.7833 34.4652 13.87 34.6852 13.95C34.9119 14.03 35.1952 14.07 35.5352 14.07C35.7752 14.07 35.9786 14.0467 36.1452 14C36.3119 13.9467 36.4452 13.8767 36.5452 13.79C36.6452 13.7033 36.7186 13.6067 36.7652 13.5C36.8119 13.3933 36.8352 13.2833 36.8352 13.17C36.8352 12.9633 36.7652 12.7933 36.6252 12.66C36.4852 12.5267 36.3019 12.4133 36.0752 12.32C35.8486 12.22 35.5886 12.13 35.2952 12.05C35.0086 11.9633 34.7152 11.8667 34.4152 11.76C34.1152 11.6533 33.8186 11.5267 33.5252 11.38C33.2386 11.2267 32.9819 11.0367 32.7552 10.81C32.5286 10.5767 32.3452 10.2933 32.2052 9.96C32.0652 9.62667 31.9952 9.22333 31.9952 8.75C31.9952 8.31 32.0786 7.89333 32.2452 7.5C32.4186 7.1 32.6752 6.75 33.0152 6.45C33.3552 6.15 33.7819 5.91333 34.2952 5.74C34.8086 5.56 35.4086 5.47 36.0952 5.47C36.4686 5.47 36.8286 5.50333 37.1752 5.57C37.5286 5.63667 37.8586 5.73 38.1652 5.85C38.4719 5.97 38.7519 6.11333 39.0052 6.28C39.2586 6.44 39.4819 6.61667 39.6752 6.81L38.9752 7.9ZM47.3615 8.41C47.1282 8.15667 46.8748 7.97667 46.6015 7.87C46.3282 7.76333 46.0415 7.71 45.7415 7.71C45.4548 7.71 45.1915 7.76667 44.9515 7.88C44.7115 7.99333 44.5015 8.17667 44.3215 8.43C44.1482 8.67667 44.0115 9 43.9115 9.4C43.8115 9.8 43.7615 10.2833 43.7615 10.85C43.7615 11.3967 43.8015 11.8567 43.8815 12.23C43.9615 12.6033 44.0715 12.9067 44.2115 13.14C44.3582 13.3667 44.5315 13.53 44.7315 13.63C44.9315 13.73 45.1548 13.78 45.4015 13.78C45.6282 13.78 45.8315 13.76 46.0115 13.72C46.1982 13.6733 46.3682 13.61 46.5215 13.53C46.6748 13.45 46.8182 13.35 46.9515 13.23C47.0915 13.1033 47.2282 12.96 47.3615 12.8V8.41ZM50.4615 5.63V19.29H47.3615V14.87C46.9682 15.2567 46.5282 15.57 46.0415 15.81C45.5548 16.0433 44.9815 16.16 44.3215 16.16C43.7815 16.16 43.2815 16.04 42.8215 15.8C42.3615 15.56 41.9648 15.2133 41.6315 14.76C41.2982 14.3067 41.0348 13.7533 40.8415 13.1C40.6548 12.44 40.5615 11.69 40.5615 10.85C40.5615 10.0767 40.6682 9.36 40.8815 8.7C41.0948 8.03333 41.3948 7.46 41.7815 6.98C42.1748 6.49333 42.6448 6.11333 43.1915 5.84C43.7382 5.56667 44.3415 5.43 45.0015 5.43C45.3148 5.43 45.5982 5.45667 45.8515 5.51C46.1048 5.56333 46.3348 5.64 46.5415 5.74C46.7548 5.84 46.9515 5.96 47.1315 6.1C47.3115 6.24 47.4848 6.39333 47.6515 6.56L47.7815 6.15C47.9015 5.80333 48.1548 5.63 48.5415 5.63H50.4615ZM61.6359 5.63V16H59.7159C59.3292 16 59.0759 15.8267 58.9559 15.48L58.7759 14.88C58.5759 15.0733 58.3692 15.25 58.1559 15.41C57.9425 15.5633 57.7125 15.6967 57.4659 15.81C57.2259 15.9167 56.9625 16 56.6759 16.06C56.3959 16.1267 56.0892 16.16 55.7559 16.16C55.1892 16.16 54.6859 16.0633 54.2459 15.87C53.8125 15.67 53.4459 15.3933 53.1459 15.04C52.8459 14.6867 52.6192 14.27 52.4659 13.79C52.3125 13.31 52.2359 12.7833 52.2359 12.21V5.63H55.3359V12.21C55.3359 12.7233 55.4525 13.12 55.6859 13.4C55.9192 13.68 56.2625 13.82 56.7159 13.82C57.0559 13.82 57.3725 13.75 57.6659 13.61C57.9659 13.4633 58.2559 13.2667 58.5359 13.02V5.63H61.6359ZM68.8721 11.78C68.2521 11.8067 67.7421 11.86 67.3421 11.94C66.9421 12.02 66.6254 12.12 66.3921 12.24C66.1588 12.36 65.9954 12.4967 65.9021 12.65C65.8154 12.8033 65.7721 12.97 65.7721 13.15C65.7721 13.5033 65.8688 13.7533 66.0621 13.9C66.2554 14.04 66.5388 14.11 66.9121 14.11C67.3121 14.11 67.6621 14.04 67.9621 13.9C68.2621 13.76 68.5654 13.5333 68.8721 13.22V11.78ZM63.2921 7.07C63.9188 6.51667 64.6121 6.10667 65.3721 5.84C66.1388 5.56667 66.9588 5.43 67.8321 5.43C68.4588 5.43 69.0221 5.53333 69.5221 5.74C70.0288 5.94 70.4554 6.22333 70.8021 6.59C71.1554 6.95 71.4254 7.38 71.6121 7.88C71.7988 8.38 71.8921 8.92667 71.8921 9.52V16H70.4721C70.1788 16 69.9554 15.96 69.8021 15.88C69.6554 15.8 69.5321 15.6333 69.4321 15.38L69.2121 14.81C68.9521 15.03 68.7021 15.2233 68.4621 15.39C68.2221 15.5567 67.9721 15.7 67.7121 15.82C67.4588 15.9333 67.1854 16.0167 66.8921 16.07C66.6054 16.13 66.2854 16.16 65.9321 16.16C65.4588 16.16 65.0288 16.1 64.6421 15.98C64.2554 15.8533 63.9254 15.67 63.6521 15.43C63.3854 15.19 63.1788 14.8933 63.0321 14.54C62.8854 14.18 62.8121 13.7667 62.8121 13.3C62.8121 12.9267 62.9054 12.55 63.0921 12.17C63.2788 11.7833 63.6021 11.4333 64.0621 11.12C64.5221 10.8 65.1421 10.5333 65.9221 10.32C66.7021 10.1067 67.6854 9.98667 68.8721 9.96V9.52C68.8721 8.91333 68.7454 8.47667 68.4921 8.21C68.2454 7.93667 67.8921 7.8 67.4321 7.8C67.0654 7.8 66.7654 7.84 66.5321 7.92C66.2988 8 66.0888 8.09 65.9021 8.19C65.7221 8.29 65.5454 8.38 65.3721 8.46C65.1988 8.54 64.9921 8.58 64.7521 8.58C64.5388 8.58 64.3588 8.52667 64.2121 8.42C64.0654 8.31333 63.9454 8.18667 63.8521 8.04L63.2921 7.07ZM76.5537 7.23C76.8737 6.67 77.2403 6.23 77.6537 5.91C78.0737 5.59 78.5537 5.43 79.0937 5.43C79.5603 5.43 79.9403 5.54 80.2337 5.76L80.0337 8.04C80.0003 8.18667 79.9437 8.28667 79.8637 8.34C79.7903 8.39333 79.687 8.42 79.5537 8.42C79.5003 8.42 79.4303 8.41667 79.3437 8.41C79.257 8.40333 79.167 8.39667 79.0737 8.39C78.9803 8.37667 78.8837 8.36667 78.7837 8.36C78.6903 8.34667 78.6037 8.34 78.5237 8.34C78.0703 8.34 77.707 8.46 77.4337 8.7C77.167 8.94 76.9403 9.27333 76.7537 9.7V16H73.6537V5.63H75.4937C75.647 5.63 75.7737 5.64333 75.8737 5.67C75.9803 5.69667 76.067 5.74 76.1337 5.8C76.207 5.85333 76.2603 5.92667 76.2937 6.02C76.3337 6.11333 76.367 6.22667 76.3937 6.36L76.5537 7.23ZM87.3446 9.57C87.3446 9.32333 87.3113 9.08333 87.2446 8.85C87.1846 8.61667 87.0813 8.41 86.9346 8.23C86.7946 8.04333 86.6079 7.89333 86.3746 7.78C86.1413 7.66667 85.8579 7.61 85.5246 7.61C84.9379 7.61 84.4779 7.78 84.1446 8.12C83.8113 8.45333 83.5913 8.93667 83.4846 9.57H87.3446ZM83.4446 11.37C83.5446 12.2367 83.8079 12.8667 84.2346 13.26C84.6613 13.6467 85.2113 13.84 85.8846 13.84C86.2446 13.84 86.5546 13.7967 86.8146 13.71C87.0746 13.6233 87.3046 13.5267 87.5046 13.42C87.7113 13.3133 87.8979 13.2167 88.0646 13.13C88.2379 13.0433 88.4179 13 88.6046 13C88.8513 13 89.0379 13.09 89.1646 13.27L90.0646 14.38C89.7446 14.7467 89.3979 15.0467 89.0246 15.28C88.6579 15.5067 88.2779 15.6867 87.8846 15.82C87.4979 15.9467 87.1079 16.0333 86.7146 16.08C86.3279 16.1333 85.9579 16.16 85.6046 16.16C84.8779 16.16 84.1946 16.0433 83.5546 15.81C82.9213 15.57 82.3646 15.2167 81.8846 14.75C81.4113 14.2833 81.0346 13.7033 80.7546 13.01C80.4813 12.3167 80.3446 11.51 80.3446 10.59C80.3446 9.89667 80.4613 9.24 80.6946 8.62C80.9346 8 81.2746 7.45667 81.7146 6.99C82.1613 6.52333 82.6979 6.15333 83.3246 5.88C83.9579 5.60667 84.6713 5.47 85.4646 5.47C86.1513 5.47 86.7779 5.57667 87.3446 5.79C87.9179 6.00333 88.4079 6.31333 88.8146 6.72C89.2279 7.12667 89.5479 7.62667 89.7746 8.22C90.0079 8.80667 90.1246 9.47333 90.1246 10.22C90.1246 10.4533 90.1146 10.6433 90.0946 10.79C90.0746 10.9367 90.0379 11.0533 89.9846 11.14C89.9313 11.2267 89.8579 11.2867 89.7646 11.32C89.6779 11.3533 89.5646 11.37 89.4246 11.37H83.4446ZM97.7459 8.41C97.5125 8.15 97.2592 7.97 96.9859 7.87C96.7125 7.76333 96.4259 7.71 96.1259 7.71C95.8392 7.71 95.5759 7.76667 95.3359 7.88C95.0959 7.99333 94.8859 8.17667 94.7059 8.43C94.5325 8.67667 94.3959 9 94.2959 9.4C94.1959 9.8 94.1459 10.2833 94.1459 10.85C94.1459 11.3967 94.1859 11.8567 94.2659 12.23C94.3459 12.6033 94.4559 12.9067 94.5959 13.14C94.7425 13.3667 94.9159 13.53 95.1159 13.63C95.3159 13.73 95.5392 13.78 95.7859 13.78C96.0125 13.78 96.2159 13.76 96.3959 13.72C96.5825 13.6733 96.7525 13.61 96.9059 13.53C97.0592 13.45 97.2025 13.35 97.3359 13.23C97.4759 13.1033 97.6125 12.96 97.7459 12.8V8.41ZM100.846 1.03V16H98.9259C98.5392 16 98.2859 15.8267 98.1659 15.48L97.9259 14.69C97.7192 14.91 97.5025 15.11 97.2759 15.29C97.0492 15.47 96.8025 15.6267 96.5359 15.76C96.2759 15.8867 95.9925 15.9833 95.6859 16.05C95.3859 16.1233 95.0592 16.16 94.7059 16.16C94.1659 16.16 93.6659 16.04 93.2059 15.8C92.7459 15.56 92.3492 15.2133 92.0159 14.76C91.6825 14.3067 91.4192 13.7533 91.2259 13.1C91.0392 12.44 90.9459 11.69 90.9459 10.85C90.9459 10.0767 91.0525 9.36 91.2659 8.7C91.4792 8.03333 91.7792 7.46 92.1659 6.98C92.5592 6.49333 93.0292 6.11333 93.5759 5.84C94.1225 5.56667 94.7259 5.43 95.3859 5.43C95.9259 5.43 96.3792 5.50667 96.7459 5.66C97.1125 5.81333 97.4459 6.02 97.7459 6.28V1.03H100.846Z" fill="#132441"/>
</svg>
