<svg width="76" height="24" viewBox="0 0 76 24" fill="none" xmlns="http://www.w3.org/2000/svg">
<path d="M5.38 21.28C3.91333 21.28 2.75333 21.02 1.9 20.5C1.06 19.98 0.639999 19.26 0.639999 18.34C0.639999 18.26 0.646666 18.16 0.659999 18.04C0.673333 17.9333 0.693333 17.8267 0.719999 17.72L3.48 16L4.1 16.7L2.84 18.24C2.82667 18.28 2.82 18.3133 2.82 18.34C2.82 18.3667 2.82 18.3933 2.82 18.42C2.82 18.7933 3.05333 19.08 3.52 19.28C3.98667 19.48 4.60667 19.58 5.38 19.58C6.03333 19.58 6.53333 19.4933 6.88 19.32C7.22667 19.16 7.4 18.92 7.4 18.6C7.4 18.4267 7.35333 18.2867 7.26 18.18C7.16667 18.0733 7.01333 17.9867 6.8 17.92C6.58667 17.8533 6.30667 17.7933 5.96 17.74C5.62667 17.6867 5.22 17.6267 4.74 17.56C4.12667 17.4933 3.52667 17.3667 2.94 17.18C2.35333 17.0067 1.86667 16.7467 1.48 16.4C1.09333 16.04 0.899999 15.5667 0.899999 14.98C0.899999 14.46 1.08 13.9867 1.44 13.56C1.8 13.12 2.27333 12.76 2.86 12.48L4.06 13.44C3.7 13.4933 3.42667 13.6133 3.24 13.8C3.06667 13.9867 2.98 14.2067 2.98 14.46C2.98 14.6733 3.06667 14.8467 3.24 14.98C3.41333 15.1 3.66 15.1933 3.98 15.26C4.3 15.3267 4.68 15.3867 5.12 15.44C5.8 15.5333 6.42667 15.6333 7 15.74C7.58667 15.8467 8.09333 16 8.52 16.2C8.96 16.3867 9.29333 16.6467 9.52 16.98C9.76 17.3133 9.88 17.7467 9.88 18.28C9.88 19.2533 9.48667 19.9933 8.7 20.5C7.92667 21.02 6.82 21.28 5.38 21.28ZM5.18 14.24C4.35333 14.24 3.62667 14.0867 3 13.78C2.38667 13.46 1.90667 13.0333 1.56 12.5C1.21333 11.9533 1.04 11.3267 1.04 10.62C1.04 9.88667 1.22 9.24667 1.58 8.7C1.95333 8.14 2.44667 7.70667 3.06 7.4C3.68667 7.09333 4.36667 6.94 5.1 6.94C5.82 6.94 6.48667 7.09333 7.1 7.4C7.72667 7.70667 8.22667 8.14667 8.6 8.72C8.98667 9.28 9.18 9.94 9.18 10.7C9.18 11.42 9.00667 12.0467 8.66 12.58C8.32667 13.1 7.86 13.5067 7.26 13.8C6.66 14.0933 5.96667 14.24 5.18 14.24ZM5.12 12.28C5.65333 12.28 6.04667 12.12 6.3 11.8C6.56667 11.4667 6.7 11.0667 6.7 10.6C6.7 10.12 6.56 9.73333 6.28 9.44C6 9.13333 5.61333 8.98 5.12 8.98C4.62667 8.98 4.23333 9.13333 3.94 9.44C3.66 9.74667 3.52 10.1333 3.52 10.6C3.52 11.0667 3.65333 11.4667 3.92 11.8C4.18667 12.12 4.58667 12.28 5.12 12.28ZM8.5 9.22L6.72 8.06L9 6.24L10.26 7.78L8.5 9.22Z" fill="#1F1F1F"/>
<path d="M11.6692 17V7.14H14.1692V9.82L13.7892 9.86C13.8292 9.28667 14.0026 8.78 14.3092 8.34C14.6159 7.9 14.9892 7.56 15.4292 7.32C15.8826 7.06667 16.3426 6.94 16.8092 6.94C17.1426 6.94 17.4559 6.98667 17.7492 7.08C18.0559 7.16 18.3692 7.3 18.6892 7.5L17.4892 9.74C17.3426 9.66 17.1559 9.58667 16.9292 9.52C16.7026 9.45333 16.4759 9.42 16.2492 9.42C15.9826 9.42 15.7226 9.46667 15.4692 9.56C15.2292 9.65333 15.0092 9.8 14.8092 10C14.6226 10.2 14.4692 10.4667 14.3492 10.8C14.2959 10.9867 14.2492 11.2267 14.2092 11.52C14.1826 11.8 14.1692 12.2133 14.1692 12.76V17H11.6692Z" fill="#1F1F1F"/>
<path d="M24.1775 17.2C23.2175 17.2 22.3642 16.98 21.6175 16.54C20.8708 16.1 20.2775 15.4933 19.8375 14.72C19.4108 13.9333 19.1975 13.0467 19.1975 12.06C19.1975 11.06 19.4108 10.18 19.8375 9.42C20.2642 8.64667 20.8508 8.04 21.5975 7.6C22.3575 7.16 23.2175 6.94 24.1775 6.94C25.1242 6.94 25.9708 7.16 26.7175 7.6C27.4642 8.04 28.0508 8.64667 28.4775 9.42C28.9042 10.18 29.1175 11.06 29.1175 12.06C29.1175 13.0467 28.9042 13.9267 28.4775 14.7C28.0508 15.4733 27.4642 16.0867 26.7175 16.54C25.9708 16.98 25.1242 17.2 24.1775 17.2ZM24.1775 15.02C24.6842 15.02 25.1175 14.9 25.4775 14.66C25.8508 14.42 26.1308 14.08 26.3175 13.64C26.5175 13.2 26.6175 12.6733 26.6175 12.06C26.6175 11.4333 26.5175 10.9067 26.3175 10.48C26.1308 10.04 25.8508 9.70667 25.4775 9.48C25.1175 9.24 24.6842 9.12 24.1775 9.12C23.6575 9.12 23.2108 9.24 22.8375 9.48C22.4642 9.70667 22.1775 10.04 21.9775 10.48C21.7775 10.9067 21.6775 11.4333 21.6775 12.06C21.6775 12.6733 21.7775 13.2 21.9775 13.64C22.1775 14.08 22.4642 14.42 22.8375 14.66C23.2108 14.9 23.6575 15.02 24.1775 15.02Z" fill="#1F1F1F"/>
<path d="M33.8713 17L29.8312 7.14H32.5513L34.8713 13.76L37.2313 7.14H39.9113L35.9113 17H33.8713Z" fill="#1F1F1F"/>
<path d="M44.6986 17.2C43.9653 17.2 43.3253 17.0933 42.7786 16.88C42.2319 16.6667 41.7653 16.4 41.3786 16.08C41.0053 15.76 40.7053 15.4533 40.4786 15.16L42.1786 13.68C42.4053 14.0533 42.7253 14.4 43.1386 14.72C43.5653 15.0267 44.0919 15.18 44.7186 15.18C45.2119 15.18 45.5919 15.0867 45.8586 14.9C46.1386 14.7 46.2786 14.4533 46.2786 14.16C46.2786 13.92 46.1919 13.7267 46.0186 13.58C45.8453 13.42 45.6119 13.2933 45.3186 13.2C45.0253 13.0933 44.6986 12.9933 44.3386 12.9C43.9653 12.7933 43.5786 12.6733 43.1786 12.54C42.7786 12.4067 42.4119 12.2333 42.0786 12.02C41.7453 11.7933 41.4719 11.5067 41.2586 11.16C41.0586 10.8133 40.9586 10.38 40.9586 9.86C40.9586 8.99333 41.2986 8.29333 41.9786 7.76C42.6586 7.21333 43.5586 6.94 44.6786 6.94C45.4653 6.94 46.1786 7.1 46.8186 7.42C47.4586 7.72667 47.9653 8.17333 48.3386 8.76L46.7986 9.98C46.5586 9.59333 46.2386 9.30667 45.8386 9.12C45.4519 8.92 45.0386 8.82 44.5986 8.82C44.2119 8.82 43.8919 8.89333 43.6386 9.04C43.3986 9.18667 43.2786 9.38667 43.2786 9.64C43.2786 9.81333 43.3319 9.96 43.4386 10.08C43.5586 10.2 43.7453 10.3067 43.9986 10.4C44.2653 10.48 44.6119 10.5733 45.0386 10.68C45.4386 10.7733 45.8519 10.8867 46.2786 11.02C46.7053 11.1533 47.1053 11.3333 47.4786 11.56C47.8519 11.7867 48.1519 12.0867 48.3786 12.46C48.6053 12.8333 48.7186 13.3067 48.7186 13.88C48.7186 14.5333 48.5519 15.1133 48.2186 15.62C47.8853 16.1133 47.4186 16.5 46.8186 16.78C46.2186 17.06 45.5119 17.2 44.6986 17.2Z" fill="#1F1F1F"/>
<path d="M69.1441 13.2831C68.1448 13.0841 67.2017 13.3123 66.471 13.8162C65.9469 14.1759 65.2744 14.2453 64.6996 13.9678L64.4028 13.8217C63.7265 13.4949 63.3377 12.8102 63.3414 12.0762V12.0634C63.3414 12.047 63.3377 12.0269 63.3377 12.0105C63.3245 11.3002 63.7077 10.6393 64.3652 10.3216L65.682 9.68071C66.1855 9.43605 66.7772 9.45979 67.2712 9.72088C67.7371 9.96189 68.2875 10.0623 68.8699 9.96189C69.873 9.79026 70.6788 8.99967 70.8535 8.02467C71.109 6.56583 69.9894 5.28956 68.5505 5.22018C67.677 5.17636 66.8805 5.65291 66.3865 6.35768C66.1611 6.67903 66.0427 6.98212 65.9957 7.27425C65.9037 7.80375 65.5675 8.26021 65.0772 8.49757L63.1855 9.41597C62.7065 9.64785 62.1411 9.6515 61.6658 9.41231C61.0872 9.12383 60.4035 9.0088 59.6859 9.14392C58.4724 9.36849 57.4955 10.3216 57.2701 11.5047C56.9151 13.389 58.401 15.0396 60.2795 15.0396C60.7829 15.0396 61.2619 14.9172 61.6808 14.7054C62.1505 14.4681 62.7121 14.4808 63.1836 14.7127L64.136 15.1765C64.6864 15.4449 65.0095 15.9963 65.0246 16.5952C65.034 16.933 65.0997 17.2853 65.2425 17.6505C65.7196 18.8446 66.8486 19.721 68.1617 19.816C70.3689 19.9821 72.1816 18.0796 71.7665 15.8941C71.5223 14.5995 70.4666 13.5478 69.1441 13.2831Z" fill="#1F1F1F"/>
</svg>
