<svg width="76" height="24" viewBox="0 0 76 24" fill="none" xmlns="http://www.w3.org/2000/svg">
<path d="M4.74 21.28C3.27333 21.28 2.11333 21.02 1.26 20.5C0.42 19.98 0 19.26 0 18.34C0 18.26 0.00666666 18.16 0.02 18.04C0.0333333 17.9333 0.0533333 17.8267 0.08 17.72L2.84 16L3.46 16.7L2.2 18.24C2.18667 18.28 2.18 18.3133 2.18 18.34C2.18 18.3667 2.18 18.3933 2.18 18.42C2.18 18.7933 2.41333 19.08 2.88 19.28C3.34667 19.48 3.96667 19.58 4.74 19.58C5.39333 19.58 5.89333 19.4933 6.24 19.32C6.58667 19.16 6.76 18.92 6.76 18.6C6.76 18.4267 6.71333 18.2867 6.62 18.18C6.52667 18.0733 6.37333 17.9867 6.16 17.92C5.94667 17.8533 5.66667 17.7933 5.32 17.74C4.98667 17.6867 4.58 17.6267 4.1 17.56C3.48667 17.4933 2.88667 17.3667 2.3 17.18C1.71333 17.0067 1.22667 16.7467 0.84 16.4C0.453333 16.04 0.26 15.5667 0.26 14.98C0.26 14.46 0.44 13.9867 0.8 13.56C1.16 13.12 1.63333 12.76 2.22 12.48L3.42 13.44C3.06 13.4933 2.78667 13.6133 2.6 13.8C2.42667 13.9867 2.34 14.2067 2.34 14.46C2.34 14.6733 2.42667 14.8467 2.6 14.98C2.77333 15.1 3.02 15.1933 3.34 15.26C3.66 15.3267 4.04 15.3867 4.48 15.44C5.16 15.5333 5.78667 15.6333 6.36 15.74C6.94667 15.8467 7.45333 16 7.88 16.2C8.32 16.3867 8.65333 16.6467 8.88 16.98C9.12 17.3133 9.24 17.7467 9.24 18.28C9.24 19.2533 8.84667 19.9933 8.06 20.5C7.28667 21.02 6.18 21.28 4.74 21.28ZM4.54 14.24C3.71333 14.24 2.98667 14.0867 2.36 13.78C1.74667 13.46 1.26667 13.0333 0.92 12.5C0.573333 11.9533 0.4 11.3267 0.4 10.62C0.4 9.88667 0.58 9.24667 0.94 8.7C1.31333 8.14 1.80667 7.70667 2.42 7.4C3.04667 7.09333 3.72667 6.94 4.46 6.94C5.18 6.94 5.84667 7.09333 6.46 7.4C7.08667 7.70667 7.58667 8.14667 7.96 8.72C8.34667 9.28 8.54 9.94 8.54 10.7C8.54 11.42 8.36667 12.0467 8.02 12.58C7.68667 13.1 7.22 13.5067 6.62 13.8C6.02 14.0933 5.32667 14.24 4.54 14.24ZM4.48 12.28C5.01333 12.28 5.40667 12.12 5.66 11.8C5.92667 11.4667 6.06 11.0667 6.06 10.6C6.06 10.12 5.92 9.73333 5.64 9.44C5.36 9.13333 4.97333 8.98 4.48 8.98C3.98667 8.98 3.59333 9.13333 3.3 9.44C3.02 9.74667 2.88 10.1333 2.88 10.6C2.88 11.0667 3.01333 11.4667 3.28 11.8C3.54667 12.12 3.94667 12.28 4.48 12.28ZM7.86 9.22L6.08 8.06L8.36 6.24L9.62 7.78L7.86 9.22Z" fill="white"/>
<path d="M11.0292 17V7.14H13.5292V9.82L13.1492 9.86C13.1892 9.28667 13.3626 8.78 13.6692 8.34C13.9759 7.9 14.3492 7.56 14.7892 7.32C15.2426 7.06667 15.7026 6.94 16.1692 6.94C16.5026 6.94 16.8159 6.98667 17.1092 7.08C17.4159 7.16 17.7292 7.3 18.0492 7.5L16.8492 9.74C16.7026 9.66 16.5159 9.58667 16.2892 9.52C16.0626 9.45333 15.8359 9.42 15.6092 9.42C15.3426 9.42 15.0826 9.46667 14.8292 9.56C14.5892 9.65333 14.3692 9.8 14.1692 10C13.9826 10.2 13.8292 10.4667 13.7092 10.8C13.6559 10.9867 13.6092 11.2267 13.5692 11.52C13.5426 11.8 13.5292 12.2133 13.5292 12.76V17H11.0292Z" fill="white"/>
<path d="M23.5375 17.2C22.5775 17.2 21.7242 16.98 20.9775 16.54C20.2308 16.1 19.6375 15.4933 19.1975 14.72C18.7708 13.9333 18.5575 13.0467 18.5575 12.06C18.5575 11.06 18.7708 10.18 19.1975 9.42C19.6242 8.64667 20.2108 8.04 20.9575 7.6C21.7175 7.16 22.5775 6.94 23.5375 6.94C24.4842 6.94 25.3308 7.16 26.0775 7.6C26.8242 8.04 27.4108 8.64667 27.8375 9.42C28.2642 10.18 28.4775 11.06 28.4775 12.06C28.4775 13.0467 28.2642 13.9267 27.8375 14.7C27.4108 15.4733 26.8242 16.0867 26.0775 16.54C25.3308 16.98 24.4842 17.2 23.5375 17.2ZM23.5375 15.02C24.0442 15.02 24.4775 14.9 24.8375 14.66C25.2108 14.42 25.4908 14.08 25.6775 13.64C25.8775 13.2 25.9775 12.6733 25.9775 12.06C25.9775 11.4333 25.8775 10.9067 25.6775 10.48C25.4908 10.04 25.2108 9.70667 24.8375 9.48C24.4775 9.24 24.0442 9.12 23.5375 9.12C23.0175 9.12 22.5708 9.24 22.1975 9.48C21.8242 9.70667 21.5375 10.04 21.3375 10.48C21.1375 10.9067 21.0375 11.4333 21.0375 12.06C21.0375 12.6733 21.1375 13.2 21.3375 13.64C21.5375 14.08 21.8242 14.42 22.1975 14.66C22.5708 14.9 23.0175 15.02 23.5375 15.02Z" fill="white"/>
<path d="M33.2313 17L29.1912 7.14H31.9113L34.2313 13.76L36.5913 7.14H39.2713L35.2713 17H33.2313Z" fill="white"/>
<path d="M44.0586 17.2C43.3253 17.2 42.6853 17.0933 42.1386 16.88C41.5919 16.6667 41.1253 16.4 40.7386 16.08C40.3653 15.76 40.0653 15.4533 39.8386 15.16L41.5386 13.68C41.7653 14.0533 42.0853 14.4 42.4986 14.72C42.9253 15.0267 43.4519 15.18 44.0786 15.18C44.5719 15.18 44.9519 15.0867 45.2186 14.9C45.4986 14.7 45.6386 14.4533 45.6386 14.16C45.6386 13.92 45.5519 13.7267 45.3786 13.58C45.2053 13.42 44.9719 13.2933 44.6786 13.2C44.3853 13.0933 44.0586 12.9933 43.6986 12.9C43.3253 12.7933 42.9386 12.6733 42.5386 12.54C42.1386 12.4067 41.7719 12.2333 41.4386 12.02C41.1053 11.7933 40.8319 11.5067 40.6186 11.16C40.4186 10.8133 40.3186 10.38 40.3186 9.86C40.3186 8.99333 40.6586 8.29333 41.3386 7.76C42.0186 7.21333 42.9186 6.94 44.0386 6.94C44.8253 6.94 45.5386 7.1 46.1786 7.42C46.8186 7.72667 47.3253 8.17333 47.6986 8.76L46.1586 9.98C45.9186 9.59333 45.5986 9.30667 45.1986 9.12C44.8119 8.92 44.3986 8.82 43.9586 8.82C43.5719 8.82 43.2519 8.89333 42.9986 9.04C42.7586 9.18667 42.6386 9.38667 42.6386 9.64C42.6386 9.81333 42.6919 9.96 42.7986 10.08C42.9186 10.2 43.1053 10.3067 43.3586 10.4C43.6253 10.48 43.9719 10.5733 44.3986 10.68C44.7986 10.7733 45.2119 10.8867 45.6386 11.02C46.0653 11.1533 46.4653 11.3333 46.8386 11.56C47.2119 11.7867 47.5119 12.0867 47.7386 12.46C47.9653 12.8333 48.0786 13.3067 48.0786 13.88C48.0786 14.5333 47.9119 15.1133 47.5786 15.62C47.2453 16.1133 46.7786 16.5 46.1786 16.78C45.5786 17.06 44.8719 17.2 44.0586 17.2Z" fill="white"/>
<path d="M68.5041 13.2831C67.5048 13.0841 66.5617 13.3123 65.831 13.8162C65.3069 14.1759 64.6344 14.2453 64.0596 13.9678L63.7628 13.8217C63.0865 13.4949 62.6977 12.8102 62.7014 12.0762V12.0634C62.7014 12.047 62.6977 12.0269 62.6977 12.0105C62.6845 11.3002 63.0677 10.6393 63.7252 10.3216L65.042 9.68071C65.5455 9.43605 66.1372 9.45979 66.6312 9.72088C67.0971 9.96189 67.6475 10.0623 68.2299 9.96189C69.233 9.79026 70.0388 8.99967 70.2135 8.02467C70.469 6.56583 69.3494 5.28956 67.9105 5.22018C67.037 5.17636 66.2405 5.65291 65.7465 6.35768C65.5211 6.67903 65.4027 6.98212 65.3557 7.27425C65.2637 7.80375 64.9275 8.26021 64.4372 8.49757L62.5455 9.41597C62.0665 9.64785 61.5011 9.6515 61.0258 9.41231C60.4472 9.12383 59.7635 9.0088 59.0459 9.14392C57.8324 9.36849 56.8555 10.3216 56.6301 11.5047C56.2751 13.389 57.761 15.0396 59.6395 15.0396C60.1429 15.0396 60.6219 14.9172 61.0408 14.7054C61.5105 14.4681 62.0721 14.4808 62.5436 14.7127L63.496 15.1765C64.0464 15.4449 64.3695 15.9963 64.3846 16.5952C64.394 16.933 64.4597 17.2853 64.6025 17.6505C65.0796 18.8446 66.2086 19.721 67.5217 19.816C69.7289 19.9821 71.5416 18.0796 71.1265 15.8941C70.8823 14.5995 69.8266 13.5478 68.5041 13.2831Z" fill="white"/>
</svg>
