<svg width="40" height="40" viewBox="0 0 40 40" fill="none" xmlns="http://www.w3.org/2000/svg">
<path d="M0 5.21739C0 2.33591 2.33591 0 5.21739 0H34.7826C37.6641 0 40 2.33591 40 5.21739V34.7826C40 37.6641 37.6641 40 34.7826 40H5.21739C2.33591 40 0 37.6641 0 34.7826V5.21739Z" fill="#1F1F1F"/>
<path d="M28.5735 22.1385C26.9079 21.8068 25.3362 22.1872 24.1183 23.0271C23.2448 23.6266 22.124 23.7422 21.166 23.2796L20.6713 23.0362C19.5442 22.4915 18.8961 21.3503 18.9024 20.127V20.1057C18.9024 20.0783 18.8961 20.0449 18.8961 20.0175C18.8742 18.8337 19.5129 17.7321 20.6087 17.2026L22.8034 16.1345C23.6425 15.7267 24.6287 15.7663 25.4521 16.2015C26.2285 16.6032 27.1459 16.7705 28.1164 16.6032C29.7883 16.3171 31.1314 14.9995 31.4226 13.3745C31.8484 10.943 29.9824 8.81594 27.5842 8.7003C26.1283 8.62727 24.8009 9.42151 23.9775 10.5961C23.6018 11.1317 23.4045 11.6369 23.3262 12.1238C23.1728 13.0062 22.6124 13.767 21.7953 14.1626L18.6425 15.6933C17.8442 16.0797 16.9018 16.0858 16.1097 15.6872C15.1454 15.2064 14.0058 15.0147 12.8098 15.2399C10.7873 15.6142 9.15924 17.2026 8.78354 19.1745C8.19181 22.315 10.6683 25.0659 13.7991 25.0659C14.6382 25.0659 15.4366 24.862 16.1347 24.509C16.9174 24.1134 17.8536 24.1347 18.6394 24.5212L20.2267 25.2942C21.1441 25.7415 21.6826 26.6605 21.7076 27.6586C21.7233 28.2216 21.8328 28.8089 22.0708 29.4175C22.866 31.4077 24.7476 32.8684 26.9361 33.0266C30.6148 33.3035 33.6361 30.1326 32.9442 26.4901C32.5371 24.3326 30.7776 22.5797 28.5735 22.1385Z" fill="white"/>
</svg>
